# xmcd
#
# Track frame offsets:
#	150
#	34523
#	56600
#	81461
#	108179
#	138266
#	165606
#	198227
#	227200
#	258376
#	278093
#	283386
#	308597
#	327683
#
# Disc length: 4632 seconds
#
# Revision: 0
# Processed by: cddbd v1.4PL0 Copyright (c) Steve Scherf et al.
# Submitted via: EasyCDDAExtractor 4.6.9.1
#
DISCID=c912160e
DTITLE=Leonard Cohen - Pop Collection
DYEAR=2001
DGENRE=
TTITLE0=Waiting for the Miracle
TTITLE1=In My Secret Life
TTITLE2=Dance Me to the End of Time
TTITLE3=Take this Waltz
TTITLE4=The Future
TTITLE5=Anthem
TTITLE6=Light as a Breeze
TTITLE7=A Thousand Kisses Deep
TTITLE8=Hallelujah
TTITLE9=I'm your Man
TTITLE10=The Great Event
TTITLE11=Tower of Song
TTITLE12=Here it is
TTITLE13=The Low
EXTD=
EXTT0=
EXTT1=
EXTT2=
EXTT3=
EXTT4=
EXTT5=
EXTT6=
EXTT7=
EXTT8=
EXTT9=
EXTT10=
EXTT11=
EXTT12=
EXTT13=
PLAYORDER=
